<svg xmlns="http://www.w3.org/2000/svg" viewBox="0 0 980 620" width="980" height="620" role="img" aria-label="Hydrogen system area and dispenser area diagram">
  <rect width="980" height="620" fill="#ffffff"/>
  <rect x="1" y="1" width="978" height="618" fill="none" stroke="#111" stroke-width="1.2"/>

  <rect x="18" y="18" width="285" height="78" fill="#202020"/>
  <text x="38" y="65" fill="#fff" font-family="Arial, Helvetica, sans-serif" font-size="24" font-weight="700">Tube-Trailer Area (TTA)</text>

  <rect x="312" y="18" width="340" height="78" fill="#202020"/>
  <text x="330" y="65" fill="#fff" font-family="Arial, Helvetica, sans-serif" font-size="24" font-weight="700">Hydrogen System Area (HSA)</text>

  <rect x="895" y="374" width="72" height="190" fill="#202020"/>
  <text x="928" y="405" fill="#fff" font-family="Arial, Helvetica, sans-serif" font-size="21" font-weight="700" writing-mode="tb">Dispenser Area</text>
  <text x="906" y="412" fill="#fff" font-family="Arial, Helvetica, sans-serif" font-size="19" font-weight="700" writing-mode="tb">(DA)</text>

  <line x1="18" y1="18" x2="18" y2="372" stroke="#777" stroke-width="2" stroke-dasharray="9 5"/>
  <line x1="303" y1="18" x2="303" y2="374" stroke="#777" stroke-width="2" stroke-dasharray="9 5"/>
  <line x1="652" y1="96" x2="652" y2="374" stroke="#777" stroke-width="2" stroke-dasharray="9 5"/>
  <line x1="650" y1="374" x2="895" y2="374" stroke="#777" stroke-width="2" stroke-dasharray="9 5"/>
  <line x1="578" y1="592" x2="895" y2="592" stroke="#777" stroke-width="2" stroke-dasharray="9 5"/>

  <text x="130" y="232" text-anchor="middle" fill="#222" font-family="Arial, Helvetica, sans-serif" font-size="18">Tube-trailer x 2</text>
  <text x="130" y="257" text-anchor="middle" fill="#222" font-family="Arial, Helvetica, sans-serif" font-size="18">500 bar</text>
  <text x="130" y="282" text-anchor="middle" fill="#222" font-family="Arial, Helvetica, sans-serif" font-size="18">1t H2 each</text>
  <line x1="130" y1="292" x2="130" y2="333" stroke="#999" stroke-width="2"/>

  <g transform="translate(35 325)" fill="#111" stroke="#111" stroke-width="2">
    <rect x="38" y="15" width="150" height="20" fill="#111"/>
    <rect x="42" y="40" width="148" height="8" fill="#111"/>
    <line x1="45" y1="14" x2="45" y2="52"/>
    <line x1="95" y1="14" x2="95" y2="52"/>
    <line x1="148" y1="14" x2="148" y2="52"/>
    <circle cx="35" cy="53" r="9" fill="#fff"/>
    <circle cx="35" cy="53" r="5" fill="#111"/>
    <circle cx="78" cy="53" r="9" fill="#fff"/>
    <circle cx="78" cy="53" r="5" fill="#111"/>
    <circle cx="182" cy="53" r="9" fill="#fff"/>
    <circle cx="182" cy="53" r="5" fill="#111"/>
    <rect x="4" y="30" width="38" height="22" fill="#111"/>
    <rect x="14" y="18" width="22" height="15" fill="#111"/>
    <circle cx="18" cy="53" r="8" fill="#fff"/>
    <circle cx="18" cy="53" r="4" fill="#111"/>
  </g>

  <path d="M238 352 C250 342, 258 364, 270 352 S292 364, 304 352" fill="none" stroke="#aaa" stroke-width="2"/>
  <line x1="304" y1="352" x2="337" y2="352" stroke="#555" stroke-width="3"/>
  <polygon points="337,352 327,344 327,360" fill="#111"/>

  <text x="405" y="136" text-anchor="middle" fill="#222" font-family="Arial, Helvetica, sans-serif" font-size="17">Mid-pressure</text>
  <text x="405" y="159" text-anchor="middle" fill="#222" font-family="Arial, Helvetica, sans-serif" font-size="17">storage tank</text>
  <text x="405" y="182" text-anchor="middle" fill="#222" font-family="Arial, Helvetica, sans-serif" font-size="17">500 bar</text>
  <path d="M405 192 C405 232, 440 202, 440 246" fill="none" stroke="#aaa" stroke-width="2"/>

  <text x="514" y="154" text-anchor="middle" fill="#222" font-family="Arial, Helvetica, sans-serif" font-size="17">High-pressure</text>
  <text x="514" y="177" text-anchor="middle" fill="#222" font-family="Arial, Helvetica, sans-serif" font-size="17">storage tank</text>
  <text x="514" y="200" text-anchor="middle" fill="#222" font-family="Arial, Helvetica, sans-serif" font-size="17">900 bar</text>
  <path d="M514 211 C514 237, 538 214, 538 246" fill="none" stroke="#aaa" stroke-width="2"/>

  <path d="M358 322 L394 344 L358 366 Z" fill="#111"/>
  <rect x="348" y="322" width="10" height="44" fill="#111"/>
  <text x="384" y="402" text-anchor="middle" fill="#222" font-family="Arial, Helvetica, sans-serif" font-size="18">Compressor</text>

  <rect x="420" y="244" width="42" height="70" rx="20" fill="#222"/>
  <rect x="500" y="244" width="42" height="70" rx="20" fill="#222"/>

  <line x1="336" y1="352" x2="358" y2="352" stroke="#555" stroke-width="3"/>
  <line x1="394" y1="352" x2="420" y2="352" stroke="#555" stroke-width="3"/>
  <line x1="462" y1="352" x2="500" y2="352" stroke="#555" stroke-width="3"/>
  <line x1="542" y1="352" x2="580" y2="352" stroke="#555" stroke-width="3"/>
  <line x1="441" y1="314" x2="441" y2="352" stroke="#555" stroke-width="3"/>
  <line x1="521" y1="314" x2="521" y2="352" stroke="#555" stroke-width="3"/>
  <line x1="580" y1="352" x2="612" y2="352" stroke="#555" stroke-width="3"/>

  <rect x="578" y="335" width="56" height="36" fill="#222"/>
  <text x="606" y="275" text-anchor="middle" fill="#222" font-family="Arial, Helvetica, sans-serif" font-size="17">Cooling</text>
  <text x="606" y="298" text-anchor="middle" fill="#222" font-family="Arial, Helvetica, sans-serif" font-size="17">system</text>
  <line x1="606" y1="371" x2="606" y2="520" stroke="#777" stroke-width="2"/>
  <line x1="635" y1="371" x2="635" y2="520" stroke="#777" stroke-width="2"/>

  <g fill="#111" font-family="Arial, Helvetica, sans-serif" font-size="13">
    <polygon points="337,342 350,352 337,362"/>
    <polygon points="418,342 431,352 418,362"/>
    <polygon points="462,342 449,352 462,362"/>
    <polygon points="500,342 487,352 500,362"/>
    <polygon points="542,342 555,352 542,362"/>
    <polygon points="580,342 567,352 580,362"/>
    <path d="M466 250 q-10 12 0 24 q10 12 0 24" stroke="#111" fill="none" stroke-width="2"/>
    <path d="M546 250 q-10 12 0 24 q10 12 0 24" stroke="#111" fill="none" stroke-width="2"/>
    <rect x="456" y="322" width="6" height="12"/>
    <rect x="536" y="322" width="6" height="12"/>
    <rect x="415" y="344" width="8" height="16"/>
    <rect x="499" y="344" width="8" height="16"/>
    <rect x="575" y="344" width="8" height="16"/>
  </g>

  <line x1="606" y1="520" x2="662" y2="520" stroke="#777" stroke-width="2"/>
  <line x1="635" y1="429" x2="662" y2="429" stroke="#777" stroke-width="2"/>

  <text x="510" y="420" text-anchor="middle" fill="#222" font-family="Arial, Helvetica, sans-serif" font-size="18">Dispenser 350 bar</text>
  <text x="510" y="444" text-anchor="middle" fill="#222" font-family="Arial, Helvetica, sans-serif" font-size="18">7.2 kg/min</text>
  <text x="510" y="535" text-anchor="middle" fill="#222" font-family="Arial, Helvetica, sans-serif" font-size="18">Dispenser 700 bar</text>
  <text x="510" y="559" text-anchor="middle" fill="#222" font-family="Arial, Helvetica, sans-serif" font-size="18">3.6 kg/min</text>

  <rect x="662" y="400" width="36" height="68" fill="#fff" stroke="#111" stroke-width="3"/>
  <rect x="672" y="430" width="14" height="18" fill="#fff" stroke="#111" stroke-width="2"/>
  <rect x="662" y="515" width="36" height="68" fill="#fff" stroke="#111" stroke-width="3"/>
  <rect x="672" y="545" width="14" height="18" fill="#fff" stroke="#111" stroke-width="2"/>
  <path d="M698 429 C712 418, 724 438, 736 428 S760 438, 772 428" fill="none" stroke="#aaa" stroke-width="2"/>
  <path d="M698 545 C712 534, 724 554, 736 544 S760 554, 772 544" fill="none" stroke="#aaa" stroke-width="2"/>

  <g transform="translate(752 400)" stroke="#111" stroke-width="3" fill="#fff">
    <rect x="16" y="16" width="80" height="36"/>
    <rect x="96" y="27" width="26" height="25"/>
    <circle cx="35" cy="62" r="9"/>
    <circle cx="90" cy="62" r="9"/>
    <circle cx="57" cy="34" r="15" fill="#111"/>
    <text x="57" y="39" text-anchor="middle" fill="#fff" stroke="none" font-family="Arial" font-size="12" font-weight="700">H₂</text>
  </g>
  <text x="789" y="392" fill="#222" font-family="Arial, Helvetica, sans-serif" font-size="18">HHDV</text>

  <g transform="translate(755 524)" stroke="#111" stroke-width="3" fill="#fff">
    <path d="M10 35 L30 18 L68 18 L90 36 L112 36 L124 47 L124 58 L10 58 Z"/>
    <circle cx="38" cy="64" r="9"/>
    <circle cx="94" cy="64" r="9"/>
    <circle cx="58" cy="35" r="15" fill="#111"/>
    <text x="58" y="40" text-anchor="middle" fill="#fff" stroke="none" font-family="Arial" font-size="12" font-weight="700">H₂</text>
  </g>
  <text x="789" y="510" fill="#222" font-family="Arial, Helvetica, sans-serif" font-size="18">HLDV</text>

  <rect x="24" y="405" width="260" height="190" fill="#fff" stroke="#111" stroke-width="1" stroke-dasharray="2 2"/>
  <text x="154" y="434" text-anchor="middle" fill="#222" font-family="Arial, Helvetica, sans-serif" font-size="15" font-weight="700" text-decoration="underline">Legend</text>
  <g font-family="Arial, Helvetica, sans-serif" font-size="15" fill="#222">
    <path d="M44 456 C52 449, 58 463, 66 456 S82 463, 90 456" fill="none" stroke="#aaa" stroke-width="2"/>
    <text x="100" y="462">Hose</text>
    <polygon points="50,478 60,488 50,498" fill="#111"/><polygon points="60,478 50,488 60,498" fill="#111"/>
    <text x="100" y="493">Emergency shutdown valve</text>
    <rect x="48" y="512" width="12" height="18" fill="#111"/><polygon points="60,512 74,521 60,530" fill="#111"/>
    <text x="100" y="526">Pressure Regulator</text>
    <path d="M54 542 q-10 10 0 20 q10 10 0 20" stroke="#111" fill="none" stroke-width="2"/>
    <text x="100" y="560">Pressure Relief Valve</text>
    <rect x="52" y="579" width="6" height="10" fill="#111"/>
    <text x="100" y="588">Breakaway couple</text>
  </g>
</svg>
